STARTFONT 2.1
FONT -Deviation--23-230-75-75
SIZE 23 75 75
FONTBOUNDINGBOX 23 23 0 0
STARTPROPERTIES 8
FONT_NAME "Deviation"
FONT_ASCENT 23
FONT_DESCENT 0
PIXEL_SIZE 23
POINT_SIZE 230
RESOLUTION_X 75
RESOLUTION_Y 75
RESOLUTION 75
ENDPROPERTIES
CHARS 46
STARTCHAR uni0020
ENCODING 32
SWIDTH 500 0
DWIDTH 6 0
BBX 6 0 0 0
BITMAP
ENDCHAR
STARTCHAR uni0025
ENCODING 37
SWIDTH 500 0
DWIDTH 6 0
BBX 21 22 0 0
BITMAP
1E0070
3F80E0
7F81C0
F3C1C0
E1C380
E1C700
E1C700
E1CE00
F3DC00
7F9C00
7FBBC0
1E77F0
00EFF0
00FE78
01DC38
039C38
039C38
071C38
0E1E78
0E0FF0
1C0FF0
3803C0
ENDCHAR
STARTCHAR uni002A
ENCODING 42
SWIDTH 500 0
DWIDTH 6 0
BBX 12 11 0 12
BITMAP
0F00
0F00
4F20
76E0
FFF0
7FE0
0F00
3FC0
79E0
39C0
1080
ENDCHAR
STARTCHAR uni002B
ENCODING 43
SWIDTH 500 0
DWIDTH 6 0
BBX 13 13 0 3
BITMAP
0700
0700
0700
0700
0700
FFF8
FFF8
FFF8
0700
0700
0700
0700
0700
ENDCHAR
STARTCHAR uni002D
ENCODING 45
SWIDTH 500 0
DWIDTH 6 0
BBX 8 4 0 7
BITMAP
FF
FF
FF
FF
ENDCHAR
STARTCHAR uni002E
ENCODING 46
SWIDTH 500 0
DWIDTH 6 0
BBX 5 5 0 0
BITMAP
70
F8
F8
F8
70
ENDCHAR
STARTCHAR uni002F
ENCODING 47
SWIDTH 500 0
DWIDTH 6 0
BBX 13 22 0 0
BITMAP
00F0
01F0
01E0
01E0
03E0
03C0
03C0
07C0
0780
0780
0F00
0F00
1F00
1E00
1E00
3E00
3C00
3C00
7800
7800
7800
F000
ENDCHAR
STARTCHAR uni0030
ENCODING 48
SWIDTH 500 0
DWIDTH 6 0
BBX 16 22 0 0
BITMAP
07E0
0FF8
1FFC
3FFE
7C3E
781E
780F
F00F
F00F
F00F
F00F
F00F
F00F
F00F
F00F
F81E
781E
7C3E
3FFC
3FFC
1FF8
07E0
ENDCHAR
STARTCHAR uni0031
ENCODING 49
SWIDTH 500 0
DWIDTH 6 0
BBX 9 22 0 0
BITMAP
0180
0780
0F80
1F80
7F80
FF80
FF80
E780
8780
0780
0780
0780
0780
0780
0780
0780
0780
0780
0780
0780
0780
0780
ENDCHAR
STARTCHAR uni0032
ENCODING 50
SWIDTH 500 0
DWIDTH 6 0
BBX 15 22 0 0
BITMAP
0FC0
3FF0
7FF8
FFFC
787C
203C
003C
003C
0078
0078
00F0
01E0
01C0
03C0
0780
0F00
1E00
1C00
3FFE
7FFE
FFFE
FFFE
ENDCHAR
STARTCHAR uni0033
ENCODING 51
SWIDTH 500 0
DWIDTH 6 0
BBX 14 22 0 0
BITMAP
1F80
3FE0
7FF0
3FF8
10F8
0078
0078
00F0
07F0
07C0
07F0
07F8
00F8
007C
003C
003C
003C
207C
7FF8
FFF8
7FE0
1F80
ENDCHAR
STARTCHAR uni0034
ENCODING 52
SWIDTH 500 0
DWIDTH 6 0
BBX 16 22 0 0
BITMAP
000C
001C
003C
007C
00FC
01FC
03FC
07BC
073C
0E3C
1C3C
383C
7FFF
FFFF
FFFF
FFFF
003C
003C
003C
003C
003C
003C
ENDCHAR
STARTCHAR uni0035
ENCODING 53
SWIDTH 500 0
DWIDTH 6 0
BBX 14 22 0 0
BITMAP
7FF8
7FF8
7FF8
7FF8
7800
7800
7800
7FC0
7FF0
7FF8
7FF8
707C
203C
003C
003C
003C
007C
20F8
7FF8
FFF0
7FE0
1F80
ENDCHAR
STARTCHAR uni0036
ENCODING 54
SWIDTH 500 0
DWIDTH 6 0
BBX 15 22 0 0
BITMAP
00C0
01E0
07F0
0F80
1F00
1E00
3C00
7C00
7FE0
FFF8
FFFC
FFFC
F83E
F01E
F01E
F01E
F01E
783E
7FFC
3FFC
1FF8
07E0
ENDCHAR
STARTCHAR uni0037
ENCODING 55
SWIDTH 500 0
DWIDTH 6 0
BBX 15 22 0 0
BITMAP
FFFE
FFFE
FFFE
FFFC
003C
0078
0078
00F0
00F0
01E0
01E0
03C0
03C0
0780
0780
0F00
0F00
0F00
1E00
1E00
3C00
3C00
ENDCHAR
STARTCHAR uni0038
ENCODING 56
SWIDTH 500 0
DWIDTH 6 0
BBX 15 22 0 0
BITMAP
07E0
1FF0
3FF8
7FFC
7C7C
783C
783C
7C78
3EF8
1FF0
1FE0
3FF8
787C
F83C
F01E
F01E
F01E
F83E
7FFC
7FFC
3FF8
0FE0
ENDCHAR
STARTCHAR uni0039
ENCODING 57
SWIDTH 500 0
DWIDTH 6 0
BBX 15 22 0 0
BITMAP
0FC0
1FF0
3FF8
7FFC
F83C
F01E
F01E
F01E
F01E
F83E
7FFE
7FFE
3FFC
0FFC
007C
0078
00F0
01F0
03E0
0FC0
1F00
0E00
ENDCHAR
STARTCHAR uni003A
ENCODING 58
SWIDTH 500 0
DWIDTH 6 0
BBX 5 16 0 0
BITMAP
70
F8
F8
F8
70
00
00
00
00
00
00
70
F8
F8
F8
70
ENDCHAR
STARTCHAR uni003C
ENCODING 60
SWIDTH 500 0
DWIDTH 6 0
BBX 12 14 0 3
BITMAP
0010
0070
01F0
07E0
1F80
7E00
F800
F800
7E00
1F80
07E0
01F0
0070
0010
ENDCHAR
STARTCHAR uni003D
ENCODING 61
SWIDTH 500 0
DWIDTH 6 0
BBX 14 9 0 5
BITMAP
FFFC
FFFC
FFFC
0000
0000
0000
FFFC
FFFC
FFFC
ENDCHAR
STARTCHAR uni003E
ENCODING 62
SWIDTH 500 0
DWIDTH 6 0
BBX 12 14 0 3
BITMAP
8000
E000
F800
7E00
1F80
07E0
01F0
01F0
07E0
1F80
7E00
F800
E000
8000
ENDCHAR
STARTCHAR uni0041
ENCODING 65
SWIDTH 500 0
DWIDTH 6 0
BBX 20 22 0 0
BITMAP
006000
00F000
00F000
00F000
01F800
01F800
03FC00
03FC00
039C00
079E00
079E00
0F0F00
0F0F00
1E0780
1FFF80
1FFF80
3FFFC0
3FFFC0
7C03E0
7801E0
7801E0
F000F0
ENDCHAR
STARTCHAR uni0042
ENCODING 66
SWIDTH 500 0
DWIDTH 6 0
BBX 15 22 0 0
BITMAP
FFC0
FFF0
FFF8
FFFC
F07C
F03C
F03C
F078
FFF8
FFE0
FFF8
FFFC
F07C
F01E
F01E
F01E
F01E
F07E
FFFC
FFFC
FFF0
FFC0
ENDCHAR
STARTCHAR uni0043
ENCODING 67
SWIDTH 500 0
DWIDTH 6 0
BBX 17 22 0 0
BITMAP
01F800
07FE00
1FFF00
1FFE00
3F0600
7C0000
780000
F80000
F00000
F00000
F00000
F00000
F00000
F00000
F80000
780000
7C0300
7F0700
3FFF80
1FFF80
0FFE00
03F800
ENDCHAR
STARTCHAR uni0044
ENCODING 68
SWIDTH 500 0
DWIDTH 6 0
BBX 17 22 0 0
BITMAP
FFC000
FFF000
FFFC00
FFFE00
F07E00
F01F00
F00F00
F00F80
F00780
F00780
F00780
F00780
F00780
F00780
F00F80
F00F00
F01F00
F07E00
FFFE00
FFFC00
FFF000
FF8000
ENDCHAR
STARTCHAR uni0045
ENCODING 69
SWIDTH 500 0
DWIDTH 6 0
BBX 15 22 0 0
BITMAP
FFFE
FFFE
FFFE
FFFE
F000
F000
F000
F000
FFF0
FFF0
FFF0
FFF0
F000
F000
F000
F000
F000
F000
FFFE
FFFE
FFFE
FFFE
ENDCHAR
STARTCHAR uni0046
ENCODING 70
SWIDTH 500 0
DWIDTH 6 0
BBX 15 22 0 0
BITMAP
FFFE
FFFE
FFFE
FFFE
F000
F000
F000
F000
FFF0
FFF0
FFF0
FFF0
F000
F000
F000
F000
F000
F000
F000
F000
F000
F000
ENDCHAR
STARTCHAR uni0047
ENCODING 71
SWIDTH 500 0
DWIDTH 6 0
BBX 18 22 0 0
BITMAP
01FC00
07FF00
0FFF80
1FFF00
3F0300
7C0000
780000
F80000
F01FC0
F01FC0
F01FC0
F01FC0
F003C0
F003C0
F803C0
7803C0
7C03C0
3F07C0
3FFFC0
1FFFC0
0FFF00
01FC00
ENDCHAR
STARTCHAR uni0048
ENCODING 72
SWIDTH 500 0
DWIDTH 6 0
BBX 17 22 0 0
BITMAP
F00780
F00780
F00780
F00780
F00780
F00780
F00780
F00780
FFFF80
FFFF80
FFFF80
FFFF80
F00780
F00780
F00780
F00780
F00780
F00780
F00780
F00780
F00780
F00780
ENDCHAR
STARTCHAR uni0049
ENCODING 73
SWIDTH 500 0
DWIDTH 6 0
BBX 4 22 0 0
BITMAP
F0
F0
F0
F0
F0
F0
F0
F0
F0
F0
F0
F0
F0
F0
F0
F0
F0
F0
F0
F0
F0
F0
ENDCHAR
STARTCHAR uni004A
ENCODING 74
SWIDTH 500 0
DWIDTH 6 0
BBX 15 22 0 0
BITMAP
001E
001E
001E
001E
001E
001E
001E
001E
001E
001E
001E
001E
001E
001E
001E
001E
F03E
F87C
7FFC
7FF8
3FF0
0FC0
ENDCHAR
STARTCHAR uni004B
ENCODING 75
SWIDTH 500 0
DWIDTH 6 0
BBX 17 22 0 0
BITMAP
F00F00
F01E00
F03C00
F07800
F07800
F0F000
F1E000
F3E000
F3C000
F78000
FFC000
FFC000
FFE000
FDF000
F8F000
F0F800
F07800
F03C00
F01E00
F01E00
F00F00
F00780
ENDCHAR
STARTCHAR uni004C
ENCODING 76
SWIDTH 500 0
DWIDTH 6 0
BBX 14 22 0 0
BITMAP
F000
F000
F000
F000
F000
F000
F000
F000
F000
F000
F000
F000
F000
F000
F000
F000
F000
F000
FFFC
FFFC
FFFC
FFFC
ENDCHAR
STARTCHAR uni004D
ENCODING 77
SWIDTH 500 0
DWIDTH 6 0
BBX 22 22 0 0
BITMAP
0C00C0
0E01C0
0E01C0
1E01E0
1F03E0
1F03E0
1F03E0
1F87E0
3F87F0
3F87F0
3BCF70
3BCF70
3BCF70
39FE70
79FE78
78FC78
78FC78
78FC78
707838
F0783C
F0783C
F0303C
ENDCHAR
STARTCHAR uni004E
ENCODING 78
SWIDTH 500 0
DWIDTH 6 0
BBX 17 22 0 0
BITMAP
C00780
E00780
F00780
F80780
FC0780
FE0780
FE0780
FF0780
FF8780
F7C780
F3E780
F1F780
F0FF80
F0FF80
F07F80
F03F80
F01F80
F01F80
F00F80
F00780
F00380
F00180
ENDCHAR
STARTCHAR uni004F
ENCODING 79
SWIDTH 500 0
DWIDTH 6 0
BBX 19 22 0 0
BITMAP
03F800
0FFE00
1FFF00
3FFF80
3E0FC0
7C07C0
7803C0
F801E0
F001E0
F001E0
F001E0
F001E0
F001E0
F001E0
F003E0
7803C0
7C07C0
7E0F80
3FFF80
1FFF00
0FFE00
03F800
ENDCHAR
STARTCHAR uni0050
ENCODING 80
SWIDTH 500 0
DWIDTH 6 0
BBX 15 22 0 0
BITMAP
FFC0
FFF0
FFFC
FFFC
F07E
F01E
F01E
F01E
F01E
F07E
FFFC
FFF8
FFF0
FFC0
F000
F000
F000
F000
F000
F000
F000
F000
ENDCHAR
STARTCHAR uni0052
ENCODING 82
SWIDTH 500 0
DWIDTH 6 0
BBX 17 22 0 0
BITMAP
FFC000
FFF800
FFFC00
FFFC00
F03E00
F01E00
F01E00
F01E00
F03E00
FFFC00
FFF800
FFF000
FFE000
F1F000
F0F000
F0F800
F07800
F03C00
F01E00
F01E00
F00F00
F00780
ENDCHAR
STARTCHAR uni0053
ENCODING 83
SWIDTH 500 0
DWIDTH 6 0
BBX 13 22 0 0
BITMAP
0FC0
3FF0
7FF0
FFE0
F820
F000
F000
F800
7C00
7F00
3F80
0FE0
03F0
00F0
0078
0078
0078
60F8
7FF0
FFF0
FFE0
3F80
ENDCHAR
STARTCHAR uni0054
ENCODING 84
SWIDTH 500 0
DWIDTH 6 0
BBX 18 22 0 0
BITMAP
FFFFC0
FFFFC0
FFFFC0
FFFFC0
01E000
01E000
01E000
01E000
01E000
01E000
01E000
01E000
01E000
01E000
01E000
01E000
01E000
01E000
01E000
01E000
01E000
01E000
ENDCHAR
STARTCHAR uni0055
ENCODING 85
SWIDTH 500 0
DWIDTH 6 0
BBX 17 22 0 0
BITMAP
F00780
F00780
F00780
F00780
F00780
F00780
F00780
F00780
F00780
F00780
F00780
F00780
F00780
F00780
F00780
F00780
F80F80
FC1F80
7FFF00
7FFE00
1FFC00
07F000
ENDCHAR
STARTCHAR uni0056
ENCODING 86
SWIDTH 500 0
DWIDTH 6 0
BBX 18 22 0 0
BITMAP
F003C0
780780
780780
780780
3C0F00
3C0F00
3C0F00
1E1E00
1E1E00
1E1E00
0F3C00
0F3C00
073800
07F800
07F800
03F000
03F000
03F000
01E000
01E000
01E000
00C000
ENDCHAR
STARTCHAR uni0057
ENCODING 87
SWIDTH 500 0
DWIDTH 6 0
BBX 28 22 0 0
BITMAP
F00600F0
F00E01F0
780F01E0
780F01E0
781F01E0
3C1F83C0
3C1F83C0
3C3F83C0
1C3FC780
1E39C780
1E79C780
0E79EF00
0F70EF00
0FF0EF00
07F0FE00
07E07E00
07E07E00
03E07C00
03C03C00
03C03C00
01C03800
01801800
ENDCHAR
STARTCHAR uni0058
ENCODING 88
SWIDTH 500 0
DWIDTH 6 0
BBX 19 22 0 0
BITMAP
7801E0
3C03C0
1E0780
1E0780
0F0F00
079E00
07BE00
03FC00
03F800
01F800
00F000
01F000
03F800
03FC00
07BC00
0F1E00
0F0F00
1E0F00
3C0780
3C0780
7803C0
F001E0
ENDCHAR
STARTCHAR uni0059
ENCODING 89
SWIDTH 500 0
DWIDTH 6 0
BBX 18 22 0 0
BITMAP
F003C0
780780
780780
3C0F00
3C0F00
1E1E00
0E1E00
0F3C00
07F800
07F800
03F000
03F000
01E000
01E000
01E000
01E000
01E000
01E000
01E000
01E000
01E000
01E000
ENDCHAR
STARTCHAR uni005A
ENCODING 90
SWIDTH 500 0
DWIDTH 6 0
BBX 15 22 0 0
BITMAP
FFFE
FFFE
FFFC
FFFC
0038
0070
00F0
00E0
01E0
01C0
0380
0380
0700
0F00
0E00
1E00
1C00
3800
7FFE
7FFE
FFFE
FFFE
ENDCHAR
